<svg width="369" height="229.8560122763527" viewBox="0 0 99.99999999999999 62.291602242914" class="css-1j8o68f"><defs id="SvgjsDefs1606"></defs><g id="SvgjsG1607" featurekey="nameFeature-0" transform="matrix(2.2245841026306152,0,0,2.2245841026306152,-3.560044638235241,-26.69273374747835)" fill="#393e46"><path d="M22.518 21.279 c0 5.1164 -4.162 9.2784 -9.2776 9.2784 l-4.6035 0 l5.0756 5.8008 c0.79856 0.913 0.70604 2.3004 -0.20668 3.099 c-0.41644 0.36453 -0.93196 0.54324 -1.4453 0.54324 c-0.61104 0 -1.2191 -0.25363 -1.6534 -0.74996 l-8.2628 -9.4432 c-0.56768 -0.64868 -0.70332 -1.5691 -0.34726 -2.3536 s1.1381 -1.2885 1.9998 -1.2885 l9.4428 0 c2.6943 0 4.8864 -2.192 4.8864 -4.8864 s-2.1922 -4.8864 -4.8864 -4.8864 l-4.1412 0 l4.5136 4.5136 c0.85756 0.85756 0.85756 2.248 0 3.1056 c-0.85784 0.85784 -2.248 0.85784 -3.1058 0 l-8.2628 -8.2628 c-0.62808 -0.62808 -0.81584 -1.5726 -0.47576 -2.3932 s1.1408 -1.3555 2.0289 -1.3555 l9.4428 0 c5.1164 0 9.2784 4.1624 9.2784 9.2784 z M46.552 31.9008 c0 0.00054688 0 0.0010938 0.00054688 0.0016406 l0 5.9014 c0 1.2128 -0.98328 2.196 -2.196 2.196 s-2.196 -0.98328 -2.196 -2.196 l0 -4.9925 l-13.314 -13.314 l0 18.306 c0 1.2128 -0.98328 2.196 -2.196 2.196 s-2.196 -0.98328 -2.196 -2.196 l0 -23.608 c0 -0.88832 0.535 -1.6891 1.3555 -2.0289 c0.82104 -0.33957 1.7654 -0.15207 2.3932 0.476 l7.3 7.3 l7.3 -7.3 c0.6278 -0.62808 1.5726 -0.8164 2.3932 -0.476 c0.82052 0.33984 1.3555 1.1406 1.3555 2.0289 l0 17.705 z M38.609 23.049 l3.5513 3.551 l0 -7.1024 z"></path></g></svg>